<?xml version="1.0" encoding="utf-8"?>
<!-- Generator: Adobe Illustrator 25.4.1, SVG Export Plug-In . SVG Version: 6.00 Build 0)  -->
<svg version="1.1" id="Layer_1" xmlns="http://www.w3.org/2000/svg" xmlns:xlink="http://www.w3.org/1999/xlink" x="0px" y="0px"
	 viewBox="0 0 118.47 175.89" style="enable-background:new 0 0 118.47 175.89;" xml:space="preserve">
<style type="text/css">
	.st0{display:none;fill:#E93A00;}
	.st1{fill:url(#SVGID_1_);}
	.st2{fill:#E93A00;}
	.st3{fill:#FFFFFF;}
</style>
<path class="st0" d="M73.18,14.28H20.02c-5.52,0-10,4.48-10,10v130c0,5.52,4.48,10,10,10h81.03c5.52,0,10-4.48,10-10V52.15
	L73.18,14.28z"/>
<linearGradient id="SVGID_1_" gradientUnits="userSpaceOnUse" x1="7.6847" y1="171.0185" x2="99.4558" y2="23.136">
	<stop  offset="0" style="stop-color:#E93A00"/>
	<stop  offset="0.4328" style="stop-color:#F46E00"/>
	<stop  offset="0.8048" style="stop-color:#FC9400"/>
	<stop  offset="1" style="stop-color:#FFA200"/>
</linearGradient>
<path class="st1" d="M74.07,0H11.73C5.25,0,0,5.25,0,11.73v152.44c0,6.48,5.25,11.73,11.73,11.73h95.02
	c6.48,0,11.73-5.25,11.73-11.73V44.4L74.07,0z"/>
<path class="st2" d="M85.8,44.4c-6.48,0-11.73-5.25-11.73-11.73V0l44.4,44.4H85.8z"/>
<g>
	<path class="st3" d="M41.14,132.74l-10.27-10.27c-0.39-0.39-0.39-1.02,0-1.41l46.42-46.42c0.39-0.39,1.02-0.39,1.41,0l10.27,10.27
		c0.39,0.39,0.39,1.02,0,1.41l-46.42,46.42C42.16,133.13,41.53,133.13,41.14,132.74z"/>
	<path class="st3" d="M93.85,80.03L83.59,69.76c-0.39-0.39-1.02-0.39-1.41,0l-1.49,1.49c-0.39,0.39-0.39,1.02,0,1.41l10.27,10.27
		c0.39,0.39,1.02,0.39,1.41,0l1.49-1.49C94.25,81.05,94.25,80.42,93.85,80.03z"/>
	<path class="st3" d="M27.66,125.71c0.23-0.87,1.32-1.16,1.96-0.53l4.4,4.4l4.4,4.4c0.64,0.64,0.35,1.73-0.53,1.96l-6.02,1.61
		l-6.02,1.61c-0.87,0.23-1.67-0.56-1.44-1.44l1.61-6.02L27.66,125.71z"/>
</g>
</svg>
