<?xml version="1.0" encoding="utf-8"?>
<!-- Generator: Adobe Illustrator 25.4.1, SVG Export Plug-In . SVG Version: 6.00 Build 0)  -->
<svg version="1.1" id="Layer_1" xmlns="http://www.w3.org/2000/svg" xmlns:xlink="http://www.w3.org/1999/xlink" x="0px" y="0px"
	 viewBox="0 0 20 40" style="enable-background:new 0 0 20 40;" xml:space="preserve">
<g>
	<path d="M1,10c0-5,4-9,9-9s9,4,9,9v20c0,5-4,9-9,9s-9-4-9-9V10 M0,10v20c0,5.5,4.5,10,10,10l0,0c5.5,0,10-4.5,10-10V10
		c0-5.5-4.5-10-10-10l0,0C4.5,0,0,4.5,0,10L0,10z"/>
</g>
</svg>
